;TYPE=PLATED
;Layer: PTH_Through
;EasyEDA Pro v2.2.47.7, 2026-05-15 13:10:39
;Gerber Generator version 0.3
M48
METRIC,LZ,0000.00000
;Hole size 1 = 0.91440 METRIC
T01C0.91440
;Hole size 2 = 1.00000 METRIC
T02C1.00000
;Hole size 3 = 1.10002 METRIC
T03C1.10002
%
G05
G90
T01
X24.93Y-21.9
X24.93Y-24.44
X24.93Y-26.98
X24.93Y-29.52
X24.93Y-32.06
X24.93Y-34.6
X24.93Y-37.14
X24.93Y-54.92
X24.93Y-52.38
X24.93Y-49.84
X24.93Y-47.3
X24.93Y-44.76
X24.93Y-42.22
X24.93Y-39.68
X2.07Y-39.68
X2.07Y-42.22
X2.07Y-44.76
X2.07Y-47.3
X2.07Y-49.84
X2.07Y-52.38
X2.07Y-54.92
X2.07Y-37.14
X2.07Y-34.6
X2.07Y-32.06
X2.07Y-29.52
X2.07Y-26.98
X2.07Y-24.44
X2.07Y-21.9
X2.07Y-11.74
X2.07Y-14.28
X2.07Y-16.82
X2.07Y-19.36
T02
X8.255Y-4.064
X10.795Y-4.064
X13.335Y-4.064
X5.715Y-4.064
X3.175Y-4.064
X11.938Y-24.511
X11.938Y-21.971
X11.938Y-19.431
X11.938Y-16.891
X11.938Y-14.351
X11.93805Y-11.811
T03
X15.9999Y-62.99203
X13.49991Y-62.99203
X10.99991Y-62.99203
M30