G04 Layer: DrillDrawingLayer*
G04 EasyEDA Pro v2.2.47.7, 2026-05-15 13:10:38*
G04 Gerber Generator version 0.3*
G04 Scale: 100 percent, Rotated: No, Reflected: No*
G04 Dimensions in millimeters*
G04 Leading zeros omitted, absolute positions, 4 integers and 5 decimals*
G04 Generated by one-click*
G04 Object Configs: Pad,Via,Track,Text,Image,Dimension,BoardOutline,BoardCutout,CopperFilled,SolidRegion,FPCStiffener,Line,PlaneZone,ComponentProperty,ComponentSilkscreen,TearDrop*
G04 Layer Configs: 1,2,3,4,5,6,7,8,9,10,11,13,14,56*
G04 Copper Areas: 0*
%FSLAX45Y45*%
%MOMM*%
%AMIconRect*4,1,4,0.28,-0.28,-0.28,-0.28,-0.28,0.28,0.28,0.28,0.28,-0.28,0*4,0,4,0.233333,-0.233333,0.233333,0.233333,-0.233333,0.233333,-0.233333,-0.233333,0.233333,-0.233333,0*%
%AMIconTriangle*4,1,3,-0.339593,0.240473,0.339593,0.240473,0,-0.37884,-0.339593,0.240473,0*4,0,3,-0.265673,0.19404,0,-0.27342,0.266233,0.19404,-0.265673,0.19404,0*%
%AMIconStar6*4,1,12,0.12068,0.20888,0.298527,0.172713,0.241313,0,0.298527,-0.17206,0.12068,-0.208227,0,-0.344073,-0.120073,-0.208227,-0.298573,-0.17206,-0.240707,0,-0.298573,0.17206,-0.120073,0.20888,0,0.344073,0.12068,0.20888,0*4,0,12,-0.000467,0.273467,-0.090067,0.171733,-0.237533,0.136733,-0.193667,-0.007467,-0.237533,-0.1372,-0.090067,-0.171733,-0.000467,-0.273933,0.090067,-0.171733,0.237533,-0.1372,0.194133,0.007,0.237533,0.1372,0.090067,0.171267,-0.000467,0.273467,0*%
%AMIconStar4*4,1,8,-0.311733,0.311733,0,0.202533,0.311733,0.311733,0.202533,0,0.311733,-0.311733,0,-0.202533,-0.304407,-0.311733,-0.202533,0,-0.311733,0.311733,0*4,0,8,0.233333,-0.233333,0.1512,0,0.233333,0.233333,0,0.1512,-0.233333,0.233333,-0.1512,0,-0.233333,-0.233333,0,-0.1512,0.233333,-0.233333,0*%
%AMIconPlus*4,1,12,0.1736,-0.28,-0.1736,-0.28,-0.1736,-0.1736,-0.28,-0.1736,-0.28,0.1736,-0.1736,0.1736,-0.1736,0.28,0.1736,0.28,0.1736,0.1736,0.28,0.1736,0.28,-0.1736,0.1736,-0.1736,0.1736,-0.28,0*4,0,12,0.126933,-0.233333,0.126933,-0.126933,0.233333,-0.126933,0.233333,0.126933,0.126933,0.126933,0.126933,0.233333,-0.126933,0.233333,-0.126933,0.126933,-0.233333,0.126933,-0.233333,-0.126933,-0.126933,-0.126933,-0.126933,-0.233333,0.126933,-0.233333,0*%
%ADD10IconRect*%
%ADD11C,0.616X0.522667*%
%ADD12IconTriangle*%
%ADD13IconStar6*%
%ADD14IconStar4*%
%ADD15IconPlus*%
G75*


G04 Drill Drawing Start*
G54D10*
G01X254000Y736600D03*
G01X1397000Y736600D03*
G54D11*
G01X443814Y-2331720D03*
G01X443814Y-1300480D03*
G54D12*
G01X1100002Y-6299200D03*
G01X1349988Y-6299200D03*
G01X1600001Y-6299200D03*
G54D13*
G01X250002Y-5829820D03*
G01X250002Y-170700D03*
G01X2449998Y-5829820D03*
G01X2449998Y-170700D03*
G54D14*
G01X317500Y-406400D03*
G01X571500Y-406400D03*
G01X825500Y-406400D03*
G01X1079500Y-406400D03*
G01X1193800Y-2451100D03*
G01X1193800Y-2197100D03*
G01X1193800Y-1943100D03*
G01X1193800Y-1689100D03*
G01X1193800Y-1435100D03*
G01X1193800Y-1181100D03*
G01X1333500Y-406400D03*
G54D15*
G01X207000Y-5492000D03*
G01X207000Y-5238000D03*
G01X207000Y-4984000D03*
G01X207000Y-4730000D03*
G01X207000Y-4476000D03*
G01X207000Y-4222000D03*
G01X207000Y-3968000D03*
G01X207000Y-3714000D03*
G01X207000Y-3460000D03*
G01X207000Y-3206000D03*
G01X207000Y-2952000D03*
G01X207000Y-2698000D03*
G01X207000Y-2444000D03*
G01X207000Y-2190000D03*
G01X207000Y-1936000D03*
G01X207000Y-1682000D03*
G01X207000Y-1428000D03*
G01X207000Y-1174000D03*
G01X2493000Y-5492000D03*
G01X2493000Y-5238000D03*
G01X2493000Y-4984000D03*
G01X2493000Y-4730000D03*
G01X2493000Y-4476000D03*
G01X2493000Y-4222000D03*
G01X2493000Y-3968000D03*
G01X2493000Y-3714000D03*
G01X2493000Y-3460000D03*
G01X2493000Y-3206000D03*
G01X2493000Y-2952000D03*
G01X2493000Y-2698000D03*
G01X2493000Y-2444000D03*
G01X2493000Y-2190000D03*
G04 Drill Drawing End*

M02*

