G04 Layer: TopSilkscreenLayer*
G04 EasyEDA Pro v2.2.47.7, 2026-05-15 13:10:38*
G04 Gerber Generator version 0.3*
G04 Scale: 100 percent, Rotated: No, Reflected: No*
G04 Dimensions in millimeters*
G04 Leading zeros omitted, absolute positions, 4 integers and 5 decimals*
G04 Generated by one-click*
G04 Object Configs: Pad,Via,Track,Text,Image,Dimension,BoardOutline,BoardCutout,CopperFilled,SolidRegion,FPCStiffener,Line,PlaneZone,ComponentProperty,ComponentSilkscreen,TearDrop*
G04 Layer Configs: 1,2,3,4,5,6,7,8,9,10,11,13,14,56*
G04 Copper Areas: 0*
%FSLAX45Y45*%
%MOMM*%
%ADD10C,0.2032*%
%ADD11C,0.15001*%
%ADD12C,0.203*%
%ADD13C,0.254*%
%ADD14C,0.4*%
%ADD15C,0.1654*%
G75*


G04 Text Start*
G54D10*
G01X344160Y-1145044D02*
G01X344160Y-1197114D01*
G01X344160Y-1145044D02*
G01X366512Y-1145044D01*
G01X374132Y-1147330D01*
G01X376418Y-1149870D01*
G01X378958Y-1154950D01*
G01X378958Y-1159776D01*
G01X376418Y-1164856D01*
G01X374132Y-1167396D01*
G01X366512Y-1169936D01*
G01X344160Y-1169936D01*
G01X361686Y-1169936D02*
G01X378958Y-1197114D01*
G01X446014Y-1152410D02*
G01X441188Y-1147330D01*
G01X433568Y-1145044D01*
G01X423662Y-1145044D01*
G01X416296Y-1147330D01*
G01X411216Y-1152410D01*
G01X411216Y-1157490D01*
G01X413756Y-1162316D01*
G01X416296Y-1164856D01*
G01X421122Y-1167396D01*
G01X436108Y-1172222D01*
G01X441188Y-1174762D01*
G01X443474Y-1177302D01*
G01X446014Y-1182382D01*
G01X446014Y-1189748D01*
G01X441188Y-1194828D01*
G01X433568Y-1197114D01*
G01X423662Y-1197114D01*
G01X416296Y-1194828D01*
G01X411216Y-1189748D01*
G01X495798Y-1145044D02*
G01X495798Y-1197114D01*
G01X478272Y-1145044D02*
G01X513070Y-1145044D01*
G01X349240Y-1386344D02*
G01X376418Y-1386344D01*
G01X361686Y-1406156D01*
G01X369052Y-1406156D01*
G01X374132Y-1408696D01*
G01X376418Y-1411236D01*
G01X378958Y-1418602D01*
G01X378958Y-1423682D01*
G01X376418Y-1431048D01*
G01X371592Y-1436128D01*
G01X363972Y-1438414D01*
G01X356606Y-1438414D01*
G01X349240Y-1436128D01*
G01X346700Y-1433588D01*
G01X344160Y-1428508D01*
G01X411216Y-1386344D02*
G01X431028Y-1438414D01*
G01X451094Y-1386344D02*
G01X431028Y-1438414D01*
G01X488432Y-1386344D02*
G01X515610Y-1386344D01*
G01X500878Y-1406156D01*
G01X508244Y-1406156D01*
G01X513324Y-1408696D01*
G01X515610Y-1411236D01*
G01X518150Y-1418602D01*
G01X518150Y-1423682D01*
G01X515610Y-1431048D01*
G01X510784Y-1436128D01*
G01X503164Y-1438414D01*
G01X495798Y-1438414D01*
G01X488432Y-1436128D01*
G01X485892Y-1433588D01*
G01X483352Y-1428508D01*
G01X344160Y-1640344D02*
G01X344160Y-1692414D01*
G01X344160Y-1640344D02*
G01X378958Y-1692414D01*
G01X378958Y-1640344D02*
G01X378958Y-1692414D01*
G01X448554Y-1652790D02*
G01X446014Y-1647710D01*
G01X441188Y-1642630D01*
G01X436108Y-1640344D01*
G01X426202Y-1640344D01*
G01X421122Y-1642630D01*
G01X416296Y-1647710D01*
G01X413756Y-1652790D01*
G01X411216Y-1660156D01*
G01X411216Y-1672602D01*
G01X413756Y-1679968D01*
G01X416296Y-1685048D01*
G01X421122Y-1690128D01*
G01X426202Y-1692414D01*
G01X436108Y-1692414D01*
G01X441188Y-1690128D01*
G01X446014Y-1685048D01*
G01X448554Y-1679968D01*
G01X381498Y-1894090D02*
G01X378958Y-1889010D01*
G01X374132Y-1883930D01*
G01X369052Y-1881644D01*
G01X359146Y-1881644D01*
G01X354066Y-1883930D01*
G01X349240Y-1889010D01*
G01X346700Y-1894090D01*
G01X344160Y-1901456D01*
G01X344160Y-1913902D01*
G01X346700Y-1921268D01*
G01X349240Y-1926348D01*
G01X354066Y-1931428D01*
G01X359146Y-1933714D01*
G01X369052Y-1933714D01*
G01X374132Y-1931428D01*
G01X378958Y-1926348D01*
G01X381498Y-1921268D01*
G01X381498Y-1913902D01*
G01X369052Y-1913902D02*
G01X381498Y-1913902D01*
G01X413756Y-1881644D02*
G01X413756Y-1933714D01*
G01X413756Y-1881644D02*
G01X448554Y-1933714D01*
G01X448554Y-1881644D02*
G01X448554Y-1933714D01*
G01X480812Y-1881644D02*
G01X480812Y-1933714D01*
G01X480812Y-1881644D02*
G01X498338Y-1881644D01*
G01X505704Y-1883930D01*
G01X510784Y-1889010D01*
G01X513070Y-1894090D01*
G01X515610Y-1901456D01*
G01X515610Y-1913902D01*
G01X513070Y-1921268D01*
G01X510784Y-1926348D01*
G01X505704Y-1931428D01*
G01X498338Y-1933714D01*
G01X480812Y-1933714D01*
G01X344160Y-5221744D02*
G01X344160Y-5273814D01*
G01X391404Y-5221744D02*
G01X386324Y-5224030D01*
G01X381498Y-5229110D01*
G01X378958Y-5234190D01*
G01X376418Y-5241556D01*
G01X376418Y-5254002D01*
G01X378958Y-5261368D01*
G01X381498Y-5266448D01*
G01X386324Y-5271528D01*
G01X391404Y-5273814D01*
G01X401310Y-5273814D01*
G01X406390Y-5271528D01*
G01X411216Y-5266448D01*
G01X413756Y-5261368D01*
G01X416296Y-5254002D01*
G01X416296Y-5241556D01*
G01X413756Y-5234190D01*
G01X411216Y-5229110D01*
G01X406390Y-5224030D01*
G01X401310Y-5221744D01*
G01X391404Y-5221744D01*
G01X473446Y-5221744D02*
G01X448554Y-5256542D01*
G01X485892Y-5256542D01*
G01X473446Y-5221744D02*
G01X473446Y-5273814D01*
G01X523230Y-5221744D02*
G01X550408Y-5221744D01*
G01X535676Y-5241556D01*
G01X543042Y-5241556D01*
G01X548122Y-5244096D01*
G01X550408Y-5246636D01*
G01X552948Y-5254002D01*
G01X552948Y-5259082D01*
G01X550408Y-5266448D01*
G01X545582Y-5271528D01*
G01X537962Y-5273814D01*
G01X530596Y-5273814D01*
G01X523230Y-5271528D01*
G01X520690Y-5268988D01*
G01X518150Y-5263908D01*
G01X630164Y-5211584D02*
G01X585206Y-5291340D01*
G01X679948Y-5221744D02*
G01X679948Y-5273814D01*
G01X662422Y-5221744D02*
G01X697220Y-5221744D01*
G01X729478Y-5221744D02*
G01X764276Y-5273814D01*
G01X764276Y-5221744D02*
G01X729478Y-5273814D01*
G01X344160Y-5463044D02*
G01X344160Y-5515114D01*
G01X391404Y-5463044D02*
G01X386324Y-5465330D01*
G01X381498Y-5470410D01*
G01X378958Y-5475490D01*
G01X376418Y-5482856D01*
G01X376418Y-5495302D01*
G01X378958Y-5502668D01*
G01X381498Y-5507748D01*
G01X386324Y-5512828D01*
G01X391404Y-5515114D01*
G01X401310Y-5515114D01*
G01X406390Y-5512828D01*
G01X411216Y-5507748D01*
G01X413756Y-5502668D01*
G01X416296Y-5495302D01*
G01X416296Y-5482856D01*
G01X413756Y-5475490D01*
G01X411216Y-5470410D01*
G01X406390Y-5465330D01*
G01X401310Y-5463044D01*
G01X391404Y-5463044D01*
G01X473446Y-5463044D02*
G01X448554Y-5497842D01*
G01X485892Y-5497842D01*
G01X473446Y-5463044D02*
G01X473446Y-5515114D01*
G01X543042Y-5463044D02*
G01X518150Y-5497842D01*
G01X555488Y-5497842D01*
G01X543042Y-5463044D02*
G01X543042Y-5515114D01*
G01X632704Y-5452884D02*
G01X587746Y-5532640D01*
G01X664962Y-5463044D02*
G01X664962Y-5515114D01*
G01X664962Y-5463044D02*
G01X687314Y-5463044D01*
G01X694934Y-5465330D01*
G01X697220Y-5467870D01*
G01X699760Y-5472950D01*
G01X699760Y-5477776D01*
G01X697220Y-5482856D01*
G01X694934Y-5485396D01*
G01X687314Y-5487936D01*
G01X664962Y-5487936D01*
G01X682488Y-5487936D02*
G01X699760Y-5515114D01*
G01X732018Y-5463044D02*
G01X766816Y-5515114D01*
G01X766816Y-5463044D02*
G01X732018Y-5515114D01*
G01X2077456Y-2167394D02*
G01X2097268Y-2219464D01*
G01X2117334Y-2167394D02*
G01X2097268Y-2219464D01*
G01X2186930Y-2179840D02*
G01X2184390Y-2174760D01*
G01X2179564Y-2169680D01*
G01X2174484Y-2167394D01*
G01X2164578Y-2167394D01*
G01X2159498Y-2169680D01*
G01X2154672Y-2174760D01*
G01X2152132Y-2179840D01*
G01X2149592Y-2187206D01*
G01X2149592Y-2199652D01*
G01X2152132Y-2207018D01*
G01X2154672Y-2212098D01*
G01X2159498Y-2217178D01*
G01X2164578Y-2219464D01*
G01X2174484Y-2219464D01*
G01X2179564Y-2217178D01*
G01X2184390Y-2212098D01*
G01X2186930Y-2207018D01*
G01X2256526Y-2179840D02*
G01X2253986Y-2174760D01*
G01X2249160Y-2169680D01*
G01X2244080Y-2167394D01*
G01X2234174Y-2167394D01*
G01X2229094Y-2169680D01*
G01X2224268Y-2174760D01*
G01X2221728Y-2179840D01*
G01X2219188Y-2187206D01*
G01X2219188Y-2199652D01*
G01X2221728Y-2207018D01*
G01X2224268Y-2212098D01*
G01X2229094Y-2217178D01*
G01X2234174Y-2219464D01*
G01X2244080Y-2219464D01*
G01X2249160Y-2217178D01*
G01X2253986Y-2212098D01*
G01X2256526Y-2207018D01*
G54D11*
G01X987618Y-5603023D02*
G01X987618Y-5632741D01*
G01X987618Y-5603023D02*
G01X1005906Y-5603023D01*
G01X987618Y-5617247D02*
G01X998794Y-5617247D01*
G01X987618Y-5632741D02*
G01X1005906Y-5632741D01*
G01X1047308Y-5607341D02*
G01X1044514Y-5604547D01*
G01X1040196Y-5603023D01*
G01X1034608Y-5603023D01*
G01X1030544Y-5604547D01*
G01X1027750Y-5607341D01*
G01X1027750Y-5610135D01*
G01X1029020Y-5612929D01*
G01X1030544Y-5614453D01*
G01X1033338Y-5615723D01*
G01X1041720Y-5618517D01*
G01X1044514Y-5620041D01*
G01X1046038Y-5621311D01*
G01X1047308Y-5624105D01*
G01X1047308Y-5628423D01*
G01X1044514Y-5631217D01*
G01X1040196Y-5632741D01*
G01X1034608Y-5632741D01*
G01X1030544Y-5631217D01*
G01X1027750Y-5628423D01*
G01X1069152Y-5603023D02*
G01X1069152Y-5632741D01*
G01X1069152Y-5603023D02*
G01X1081598Y-5603023D01*
G01X1085916Y-5604547D01*
G01X1087440Y-5606071D01*
G01X1088710Y-5608865D01*
G01X1088710Y-5612929D01*
G01X1087440Y-5615723D01*
G01X1085916Y-5617247D01*
G01X1081598Y-5618517D01*
G01X1069152Y-5618517D01*
G01X1113348Y-5603023D02*
G01X1128842Y-5603023D01*
G01X1120206Y-5614453D01*
G01X1124524Y-5614453D01*
G01X1127318Y-5615723D01*
G01X1128842Y-5617247D01*
G01X1130112Y-5621311D01*
G01X1130112Y-5624105D01*
G01X1128842Y-5628423D01*
G01X1126048Y-5631217D01*
G01X1121730Y-5632741D01*
G01X1117412Y-5632741D01*
G01X1113348Y-5631217D01*
G01X1111824Y-5629947D01*
G01X1110554Y-5627153D01*
G01X1153226Y-5610135D02*
G01X1153226Y-5608865D01*
G01X1154750Y-5606071D01*
G01X1156020Y-5604547D01*
G01X1158814Y-5603023D01*
G01X1164402Y-5603023D01*
G01X1167450Y-5604547D01*
G01X1168720Y-5606071D01*
G01X1170244Y-5608865D01*
G01X1170244Y-5611659D01*
G01X1168720Y-5614453D01*
G01X1165926Y-5618517D01*
G01X1151956Y-5632741D01*
G01X1171514Y-5632741D01*
G01X1193358Y-5620041D02*
G01X1218504Y-5620041D01*
G01X1259906Y-5607341D02*
G01X1257112Y-5604547D01*
G01X1252794Y-5603023D01*
G01X1247206Y-5603023D01*
G01X1243142Y-5604547D01*
G01X1240348Y-5607341D01*
G01X1240348Y-5610135D01*
G01X1241618Y-5612929D01*
G01X1243142Y-5614453D01*
G01X1245936Y-5615723D01*
G01X1254318Y-5618517D01*
G01X1257112Y-5620041D01*
G01X1258636Y-5621311D01*
G01X1259906Y-5624105D01*
G01X1259906Y-5628423D01*
G01X1257112Y-5631217D01*
G01X1252794Y-5632741D01*
G01X1247206Y-5632741D01*
G01X1243142Y-5631217D01*
G01X1240348Y-5628423D01*
G01X1284544Y-5603023D02*
G01X1300038Y-5603023D01*
G01X1291402Y-5614453D01*
G01X1295720Y-5614453D01*
G01X1298514Y-5615723D01*
G01X1300038Y-5617247D01*
G01X1301308Y-5621311D01*
G01X1301308Y-5624105D01*
G01X1300038Y-5628423D01*
G01X1297244Y-5631217D01*
G01X1292926Y-5632741D01*
G01X1288608Y-5632741D01*
G01X1284544Y-5631217D01*
G01X1283020Y-5629947D01*
G01X1281750Y-5627153D01*
G01X1323152Y-5620041D02*
G01X1348298Y-5620041D01*
G01X1370142Y-5603023D02*
G01X1377000Y-5632741D01*
G01X1384112Y-5603023D02*
G01X1377000Y-5632741D01*
G01X1384112Y-5603023D02*
G01X1391224Y-5632741D01*
G01X1398082Y-5603023D02*
G01X1391224Y-5632741D01*
G01X1419926Y-5603023D02*
G01X1419926Y-5632741D01*
G01X1419926Y-5603023D02*
G01X1432372Y-5603023D01*
G01X1436690Y-5604547D01*
G01X1438214Y-5606071D01*
G01X1439484Y-5608865D01*
G01X1439484Y-5611659D01*
G01X1438214Y-5614453D01*
G01X1436690Y-5615723D01*
G01X1432372Y-5617247D01*
G01X1419926Y-5617247D01*
G01X1429578Y-5617247D02*
G01X1439484Y-5632741D01*
G01X1469710Y-5603023D02*
G01X1466916Y-5604547D01*
G01X1464122Y-5607341D01*
G01X1462598Y-5610135D01*
G01X1461328Y-5614453D01*
G01X1461328Y-5621311D01*
G01X1462598Y-5625629D01*
G01X1464122Y-5628423D01*
G01X1466916Y-5631217D01*
G01X1469710Y-5632741D01*
G01X1475298Y-5632741D01*
G01X1478092Y-5631217D01*
G01X1480886Y-5628423D01*
G01X1482410Y-5625629D01*
G01X1483680Y-5621311D01*
G01X1483680Y-5614453D01*
G01X1482410Y-5610135D01*
G01X1480886Y-5607341D01*
G01X1478092Y-5604547D01*
G01X1475298Y-5603023D01*
G01X1469710Y-5603023D01*
G01X1513906Y-5603023D02*
G01X1511112Y-5604547D01*
G01X1508318Y-5607341D01*
G01X1506794Y-5610135D01*
G01X1505524Y-5614453D01*
G01X1505524Y-5621311D01*
G01X1506794Y-5625629D01*
G01X1508318Y-5628423D01*
G01X1511112Y-5631217D01*
G01X1513906Y-5632741D01*
G01X1519494Y-5632741D01*
G01X1522288Y-5631217D01*
G01X1525082Y-5628423D01*
G01X1526606Y-5625629D01*
G01X1527876Y-5621311D01*
G01X1527876Y-5614453D01*
G01X1526606Y-5610135D01*
G01X1525082Y-5607341D01*
G01X1522288Y-5604547D01*
G01X1519494Y-5603023D01*
G01X1513906Y-5603023D01*
G01X1549720Y-5603023D02*
G01X1549720Y-5632741D01*
G01X1549720Y-5603023D02*
G01X1560896Y-5632741D01*
G01X1572072Y-5603023D02*
G01X1560896Y-5632741D01*
G01X1572072Y-5603023D02*
G01X1572072Y-5632741D01*
G01X1593916Y-5620041D02*
G01X1619062Y-5620041D01*
G01X1640906Y-5608865D02*
G01X1643700Y-5607341D01*
G01X1647764Y-5603023D01*
G01X1647764Y-5632741D01*
G54D12*
G01X1328588Y-4244555D02*
G01X1380912Y-4244555D01*
G01X1328588Y-4244555D02*
G01X1328588Y-4212297D01*
G01X1353734Y-4244555D02*
G01X1353734Y-4224743D01*
G01X1328588Y-4180039D02*
G01X1331128Y-4177499D01*
G01X1328588Y-4174959D01*
G01X1326302Y-4177499D01*
G01X1328588Y-4180039D01*
G01X1346114Y-4177499D02*
G01X1380912Y-4177499D01*
G01X1346114Y-4142701D02*
G01X1380912Y-4142701D01*
G01X1361100Y-4142701D02*
G01X1353734Y-4140161D01*
G01X1348654Y-4135335D01*
G01X1346114Y-4130255D01*
G01X1346114Y-4122889D01*
G01X1361100Y-4090631D02*
G01X1361100Y-4060659D01*
G01X1356020Y-4060659D01*
G01X1351194Y-4063199D01*
G01X1348654Y-4065739D01*
G01X1346114Y-4070819D01*
G01X1346114Y-4078185D01*
G01X1348654Y-4083265D01*
G01X1353734Y-4088091D01*
G01X1361100Y-4090631D01*
G01X1366180Y-4090631D01*
G01X1373546Y-4088091D01*
G01X1378626Y-4083265D01*
G01X1380912Y-4078185D01*
G01X1380912Y-4070819D01*
G01X1378626Y-4065739D01*
G01X1373546Y-4060659D01*
G01X1328588Y-4028401D02*
G01X1380912Y-4028401D01*
G01X1328588Y-4028401D02*
G01X1328588Y-4006049D01*
G01X1331128Y-3998429D01*
G01X1333668Y-3996143D01*
G01X1338748Y-3993603D01*
G01X1343574Y-3993603D01*
G01X1348654Y-3996143D01*
G01X1351194Y-3998429D01*
G01X1353734Y-4006049D01*
G01X1353734Y-4028401D02*
G01X1353734Y-4006049D01*
G01X1356020Y-3998429D01*
G01X1358560Y-3996143D01*
G01X1363640Y-3993603D01*
G01X1371006Y-3993603D01*
G01X1376086Y-3996143D01*
G01X1378626Y-3998429D01*
G01X1380912Y-4006049D01*
G01X1380912Y-4028401D01*
G01X1361100Y-3961345D02*
G01X1361100Y-3931373D01*
G01X1356020Y-3931373D01*
G01X1351194Y-3933913D01*
G01X1348654Y-3936453D01*
G01X1346114Y-3941533D01*
G01X1346114Y-3948899D01*
G01X1348654Y-3953979D01*
G01X1353734Y-3958805D01*
G01X1361100Y-3961345D01*
G01X1366180Y-3961345D01*
G01X1373546Y-3958805D01*
G01X1378626Y-3953979D01*
G01X1380912Y-3948899D01*
G01X1380912Y-3941533D01*
G01X1378626Y-3936453D01*
G01X1373546Y-3931373D01*
G01X1361100Y-3899115D02*
G01X1361100Y-3869143D01*
G01X1356020Y-3869143D01*
G01X1351194Y-3871683D01*
G01X1348654Y-3874223D01*
G01X1346114Y-3879303D01*
G01X1346114Y-3886669D01*
G01X1348654Y-3891749D01*
G01X1353734Y-3896575D01*
G01X1361100Y-3899115D01*
G01X1366180Y-3899115D01*
G01X1373546Y-3896575D01*
G01X1378626Y-3891749D01*
G01X1380912Y-3886669D01*
G01X1380912Y-3879303D01*
G01X1378626Y-3874223D01*
G01X1373546Y-3869143D01*
G01X1328588Y-3829519D02*
G01X1371006Y-3829519D01*
G01X1378626Y-3826979D01*
G01X1380912Y-3821899D01*
G01X1380912Y-3817073D01*
G01X1346114Y-3836885D02*
G01X1346114Y-3819359D01*
G01X1328588Y-3784815D02*
G01X1380912Y-3784815D01*
G01X1361100Y-3752557D02*
G01X1361100Y-3722585D01*
G01X1356020Y-3722585D01*
G01X1351194Y-3725125D01*
G01X1348654Y-3727665D01*
G01X1346114Y-3732745D01*
G01X1346114Y-3740111D01*
G01X1348654Y-3745191D01*
G01X1353734Y-3750017D01*
G01X1361100Y-3752557D01*
G01X1366180Y-3752557D01*
G01X1373546Y-3750017D01*
G01X1378626Y-3745191D01*
G01X1380912Y-3740111D01*
G01X1380912Y-3732745D01*
G01X1378626Y-3727665D01*
G01X1373546Y-3722585D01*
G01X1341288Y-3632161D02*
G01X1338748Y-3632161D01*
G01X1333668Y-3629621D01*
G01X1331128Y-3627081D01*
G01X1328588Y-3622001D01*
G01X1328588Y-3612095D01*
G01X1331128Y-3607269D01*
G01X1333668Y-3604729D01*
G01X1338748Y-3602189D01*
G01X1343574Y-3602189D01*
G01X1348654Y-3604729D01*
G01X1356020Y-3609555D01*
G01X1380912Y-3634447D01*
G01X1380912Y-3599649D01*
G01X1328588Y-3511511D02*
G01X1380912Y-3511511D01*
G01X1328588Y-3511511D02*
G01X1328588Y-3489159D01*
G01X1331128Y-3481793D01*
G01X1333668Y-3479253D01*
G01X1338748Y-3476713D01*
G01X1343574Y-3476713D01*
G01X1348654Y-3479253D01*
G01X1351194Y-3481793D01*
G01X1353734Y-3489159D01*
G01X1353734Y-3511511D02*
G01X1353734Y-3489159D01*
G01X1356020Y-3481793D01*
G01X1358560Y-3479253D01*
G01X1363640Y-3476713D01*
G01X1371006Y-3476713D01*
G01X1376086Y-3479253D01*
G01X1378626Y-3481793D01*
G01X1380912Y-3489159D01*
G01X1380912Y-3511511D01*
G01X1346114Y-3432009D02*
G01X1348654Y-3437089D01*
G01X1353734Y-3441915D01*
G01X1361100Y-3444455D01*
G01X1366180Y-3444455D01*
G01X1373546Y-3441915D01*
G01X1378626Y-3437089D01*
G01X1380912Y-3432009D01*
G01X1380912Y-3424643D01*
G01X1378626Y-3419563D01*
G01X1373546Y-3414483D01*
G01X1366180Y-3412197D01*
G01X1361100Y-3412197D01*
G01X1353734Y-3414483D01*
G01X1348654Y-3419563D01*
G01X1346114Y-3424643D01*
G01X1346114Y-3432009D01*
G01X1346114Y-3349967D02*
G01X1380912Y-3349967D01*
G01X1353734Y-3349967D02*
G01X1348654Y-3355047D01*
G01X1346114Y-3360127D01*
G01X1346114Y-3367493D01*
G01X1348654Y-3372573D01*
G01X1353734Y-3377399D01*
G01X1361100Y-3379939D01*
G01X1366180Y-3379939D01*
G01X1373546Y-3377399D01*
G01X1378626Y-3372573D01*
G01X1380912Y-3367493D01*
G01X1380912Y-3360127D01*
G01X1378626Y-3355047D01*
G01X1373546Y-3349967D01*
G01X1346114Y-3317709D02*
G01X1380912Y-3317709D01*
G01X1361100Y-3317709D02*
G01X1353734Y-3315169D01*
G01X1348654Y-3310343D01*
G01X1346114Y-3305263D01*
G01X1346114Y-3297897D01*
G01X1328588Y-3235667D02*
G01X1380912Y-3235667D01*
G01X1353734Y-3235667D02*
G01X1348654Y-3240747D01*
G01X1346114Y-3245827D01*
G01X1346114Y-3253193D01*
G01X1348654Y-3258273D01*
G01X1353734Y-3263099D01*
G01X1361100Y-3265639D01*
G01X1366180Y-3265639D01*
G01X1373546Y-3263099D01*
G01X1378626Y-3258273D01*
G01X1380912Y-3253193D01*
G01X1380912Y-3245827D01*
G01X1378626Y-3240747D01*
G01X1373546Y-3235667D01*
G01X1328588Y-3147529D02*
G01X1380912Y-3147529D01*
G01X1328588Y-3147529D02*
G01X1328588Y-3115271D01*
G01X1353734Y-3147529D02*
G01X1353734Y-3127717D01*
G01X1380912Y-3147529D02*
G01X1380912Y-3115271D01*
G01X1336208Y-3048215D02*
G01X1331128Y-3053041D01*
G01X1328588Y-3060661D01*
G01X1328588Y-3070567D01*
G01X1331128Y-3077933D01*
G01X1336208Y-3083013D01*
G01X1341288Y-3083013D01*
G01X1346114Y-3080473D01*
G01X1348654Y-3077933D01*
G01X1351194Y-3073107D01*
G01X1356020Y-3058121D01*
G01X1358560Y-3053041D01*
G01X1361100Y-3050755D01*
G01X1366180Y-3048215D01*
G01X1373546Y-3048215D01*
G01X1378626Y-3053041D01*
G01X1380912Y-3060661D01*
G01X1380912Y-3070567D01*
G01X1378626Y-3077933D01*
G01X1373546Y-3083013D01*
G01X1328588Y-3015957D02*
G01X1380912Y-3015957D01*
G01X1328588Y-3015957D02*
G01X1328588Y-2993605D01*
G01X1331128Y-2985985D01*
G01X1333668Y-2983699D01*
G01X1338748Y-2981159D01*
G01X1346114Y-2981159D01*
G01X1351194Y-2983699D01*
G01X1353734Y-2985985D01*
G01X1356020Y-2993605D01*
G01X1356020Y-3015957D01*
G01X1328588Y-2943821D02*
G01X1328588Y-2916643D01*
G01X1348654Y-2931375D01*
G01X1348654Y-2924009D01*
G01X1351194Y-2918929D01*
G01X1353734Y-2916643D01*
G01X1361100Y-2914103D01*
G01X1366180Y-2914103D01*
G01X1373546Y-2916643D01*
G01X1378626Y-2921469D01*
G01X1380912Y-2929089D01*
G01X1380912Y-2936455D01*
G01X1378626Y-2943821D01*
G01X1376086Y-2946361D01*
G01X1371006Y-2948901D01*
G01X1341288Y-2879305D02*
G01X1338748Y-2879305D01*
G01X1333668Y-2876765D01*
G01X1331128Y-2874479D01*
G01X1328588Y-2869399D01*
G01X1328588Y-2859493D01*
G01X1331128Y-2854413D01*
G01X1333668Y-2851873D01*
G01X1338748Y-2849587D01*
G01X1343574Y-2849587D01*
G01X1348654Y-2851873D01*
G01X1356020Y-2856953D01*
G01X1380912Y-2881845D01*
G01X1380912Y-2847047D01*
G01X1358560Y-2814789D02*
G01X1358560Y-2770085D01*
G01X1336208Y-2703029D02*
G01X1331128Y-2707855D01*
G01X1328588Y-2715475D01*
G01X1328588Y-2725381D01*
G01X1331128Y-2732747D01*
G01X1336208Y-2737827D01*
G01X1341288Y-2737827D01*
G01X1346114Y-2735287D01*
G01X1348654Y-2732747D01*
G01X1351194Y-2727921D01*
G01X1356020Y-2712935D01*
G01X1358560Y-2707855D01*
G01X1361100Y-2705569D01*
G01X1366180Y-2703029D01*
G01X1373546Y-2703029D01*
G01X1378626Y-2707855D01*
G01X1380912Y-2715475D01*
G01X1380912Y-2725381D01*
G01X1378626Y-2732747D01*
G01X1373546Y-2737827D01*
G01X1328588Y-2665691D02*
G01X1328588Y-2638513D01*
G01X1348654Y-2653245D01*
G01X1348654Y-2645879D01*
G01X1351194Y-2640799D01*
G01X1353734Y-2638513D01*
G01X1361100Y-2635973D01*
G01X1366180Y-2635973D01*
G01X1373546Y-2638513D01*
G01X1378626Y-2643339D01*
G01X1380912Y-2650959D01*
G01X1380912Y-2658325D01*
G01X1378626Y-2665691D01*
G01X1376086Y-2668231D01*
G01X1371006Y-2670771D01*
G01X2449998Y-1739861D02*
G01X2502322Y-1739861D01*
G01X2449998Y-1739861D02*
G01X2449998Y-1717509D01*
G01X2452538Y-1709889D01*
G01X2455078Y-1707603D01*
G01X2460158Y-1705063D01*
G01X2464984Y-1705063D01*
G01X2470064Y-1707603D01*
G01X2472604Y-1709889D01*
G01X2475144Y-1717509D01*
G01X2475144Y-1739861D02*
G01X2475144Y-1717509D01*
G01X2477430Y-1709889D01*
G01X2479970Y-1707603D01*
G01X2485050Y-1705063D01*
G01X2492416Y-1705063D01*
G01X2497496Y-1707603D01*
G01X2500036Y-1709889D01*
G01X2502322Y-1717509D01*
G01X2502322Y-1739861D01*
G01X2467524Y-1642833D02*
G01X2502322Y-1642833D01*
G01X2475144Y-1642833D02*
G01X2470064Y-1647913D01*
G01X2467524Y-1652993D01*
G01X2467524Y-1660359D01*
G01X2470064Y-1665439D01*
G01X2475144Y-1670265D01*
G01X2482510Y-1672805D01*
G01X2487590Y-1672805D01*
G01X2494956Y-1670265D01*
G01X2500036Y-1665439D01*
G01X2502322Y-1660359D01*
G01X2502322Y-1652993D01*
G01X2500036Y-1647913D01*
G01X2494956Y-1642833D01*
G01X2449998Y-1603209D02*
G01X2492416Y-1603209D01*
G01X2500036Y-1600669D01*
G01X2502322Y-1595589D01*
G01X2502322Y-1590763D01*
G01X2467524Y-1610575D02*
G01X2467524Y-1593049D01*
G01X2449998Y-1551139D02*
G01X2492416Y-1551139D01*
G01X2500036Y-1548599D01*
G01X2502322Y-1543519D01*
G01X2502322Y-1538693D01*
G01X2467524Y-1558505D02*
G01X2467524Y-1540979D01*
G01X2482510Y-1506435D02*
G01X2482510Y-1476463D01*
G01X2477430Y-1476463D01*
G01X2472604Y-1479003D01*
G01X2470064Y-1481543D01*
G01X2467524Y-1486623D01*
G01X2467524Y-1493989D01*
G01X2470064Y-1499069D01*
G01X2475144Y-1503895D01*
G01X2482510Y-1506435D01*
G01X2487590Y-1506435D01*
G01X2494956Y-1503895D01*
G01X2500036Y-1499069D01*
G01X2502322Y-1493989D01*
G01X2502322Y-1486623D01*
G01X2500036Y-1481543D01*
G01X2494956Y-1476463D01*
G01X2467524Y-1444205D02*
G01X2502322Y-1444205D01*
G01X2482510Y-1444205D02*
G01X2475144Y-1441665D01*
G01X2470064Y-1436839D01*
G01X2467524Y-1431759D01*
G01X2467524Y-1424393D01*
G01X2467524Y-1389595D02*
G01X2502322Y-1374609D01*
G01X2467524Y-1359877D02*
G01X2502322Y-1374609D01*
G01X2512482Y-1379689D01*
G01X2517308Y-1384769D01*
G01X2519848Y-1389595D01*
G01X2519848Y-1392135D01*
G01X1240170Y-70014D02*
G01X1240170Y-107606D01*
G01X1242710Y-114972D01*
G01X1247536Y-120052D01*
G01X1255156Y-122338D01*
G01X1259982Y-122338D01*
G01X1267602Y-120052D01*
G01X1272428Y-114972D01*
G01X1274968Y-107606D01*
G01X1274968Y-70014D01*
G01X1342024Y-77634D02*
G01X1337198Y-72554D01*
G01X1329578Y-70014D01*
G01X1319672Y-70014D01*
G01X1312306Y-72554D01*
G01X1307226Y-77634D01*
G01X1307226Y-82714D01*
G01X1309766Y-87540D01*
G01X1312306Y-90080D01*
G01X1317132Y-92620D01*
G01X1332118Y-97446D01*
G01X1337198Y-99986D01*
G01X1339484Y-102526D01*
G01X1342024Y-107606D01*
G01X1342024Y-114972D01*
G01X1337198Y-120052D01*
G01X1329578Y-122338D01*
G01X1319672Y-122338D01*
G01X1312306Y-120052D01*
G01X1307226Y-114972D01*
G01X1374282Y-70014D02*
G01X1374282Y-122338D01*
G01X1374282Y-70014D02*
G01X1396634Y-70014D01*
G01X1404254Y-72554D01*
G01X1406540Y-75094D01*
G01X1409080Y-80174D01*
G01X1409080Y-85000D01*
G01X1406540Y-90080D01*
G01X1404254Y-92620D01*
G01X1396634Y-95160D01*
G01X1374282Y-95160D02*
G01X1396634Y-95160D01*
G01X1404254Y-97446D01*
G01X1406540Y-99986D01*
G01X1409080Y-105066D01*
G01X1409080Y-112432D01*
G01X1406540Y-117512D01*
G01X1404254Y-120052D01*
G01X1396634Y-122338D01*
G01X1374282Y-122338D01*
G01X260010Y-560184D02*
G01X207686Y-560184D01*
G01X260010Y-560184D02*
G01X260010Y-582536D01*
G01X257470Y-590156D01*
G01X254930Y-592442D01*
G01X249850Y-594982D01*
G01X245024Y-594982D01*
G01X239944Y-592442D01*
G01X237404Y-590156D01*
G01X234864Y-582536D01*
G01X234864Y-560184D01*
G01X234864Y-577710D02*
G01X207686Y-594982D01*
G01X252390Y-662038D02*
G01X257470Y-657212D01*
G01X260010Y-649592D01*
G01X260010Y-639686D01*
G01X257470Y-632320D01*
G01X252390Y-627240D01*
G01X247310Y-627240D01*
G01X242484Y-629780D01*
G01X239944Y-632320D01*
G01X237404Y-637146D01*
G01X232578Y-652132D01*
G01X230038Y-657212D01*
G01X227498Y-659498D01*
G01X222418Y-662038D01*
G01X215052Y-662038D01*
G01X209972Y-657212D01*
G01X207686Y-649592D01*
G01X207686Y-639686D01*
G01X209972Y-632320D01*
G01X215052Y-627240D01*
G01X260010Y-711822D02*
G01X207686Y-711822D01*
G01X260010Y-694296D02*
G01X260010Y-729094D01*
G01X2399985Y-864958D02*
G01X2435037Y-889850D01*
G01X2435037Y-852512D01*
G01X2399985Y-864958D02*
G01X2452309Y-864958D01*
G01X2399985Y-785456D02*
G01X2452309Y-810348D01*
G01X2399985Y-820254D02*
G01X2399985Y-785456D01*
G01X2390079Y-708494D02*
G01X2469835Y-753198D01*
G01X2399985Y-676236D02*
G01X2452309Y-676236D01*
G01X2399985Y-676236D02*
G01X2399985Y-658710D01*
G01X2402525Y-651344D01*
G01X2407605Y-646264D01*
G01X2412685Y-643978D01*
G01X2420051Y-641438D01*
G01X2432497Y-641438D01*
G01X2439863Y-643978D01*
G01X2444943Y-646264D01*
G01X2450023Y-651344D01*
G01X2452309Y-658710D01*
G01X2452309Y-676236D01*
G01X2410145Y-609180D02*
G01X2407605Y-604100D01*
G01X2399985Y-596734D01*
G01X2452309Y-596734D01*
G01X2399985Y-539584D02*
G01X2435037Y-564476D01*
G01X2435037Y-527138D01*
G01X2399985Y-539584D02*
G01X2452309Y-539584D01*
G54D11*
G01X163820Y-5622810D02*
G01X163820Y-5652528D01*
G01X163820Y-5622810D02*
G01X176266Y-5622810D01*
G01X180584Y-5624334D01*
G01X182108Y-5625858D01*
G01X183378Y-5628652D01*
G01X183378Y-5632716D01*
G01X182108Y-5635510D01*
G01X180584Y-5637034D01*
G01X176266Y-5638304D01*
G01X163820Y-5638304D01*
G01X219192Y-5622810D02*
G01X205222Y-5642622D01*
G01X226304Y-5642622D01*
G01X219192Y-5622810D02*
G01X219192Y-5652528D01*
G01X2452208Y-2030818D02*
G01X2452208Y-2060536D01*
G01X2452208Y-2030818D02*
G01X2464654Y-2030818D01*
G01X2468972Y-2032342D01*
G01X2470496Y-2033866D01*
G01X2471766Y-2036660D01*
G01X2471766Y-2040724D01*
G01X2470496Y-2043518D01*
G01X2468972Y-2045042D01*
G01X2464654Y-2046312D01*
G01X2452208Y-2046312D01*
G01X2496404Y-2030818D02*
G01X2511898Y-2030818D01*
G01X2503262Y-2042248D01*
G01X2507580Y-2042248D01*
G01X2510374Y-2043518D01*
G01X2511898Y-2045042D01*
G01X2513168Y-2049106D01*
G01X2513168Y-2051900D01*
G01X2511898Y-2056218D01*
G01X2509104Y-2059012D01*
G01X2504786Y-2060536D01*
G01X2500468Y-2060536D01*
G01X2496404Y-2059012D01*
G01X2494880Y-2057742D01*
G01X2493610Y-2054948D01*
G36*
G01X1935236Y-6211540D02*
G01X1929827Y-6211282D01*
G01X1927251Y-6211024D01*
G01X1924160Y-6210767D01*
G01X1922358Y-6210509D01*
G01X1920039Y-6210252D01*
G01X1916948Y-6209736D01*
G01X1914373Y-6209221D01*
G01X1912055Y-6208706D01*
G01X1908706Y-6207933D01*
G01X1905100Y-6206903D01*
G01X1901752Y-6205873D01*
G01X1896085Y-6203812D01*
G01X1893767Y-6202782D01*
G01X1891706Y-6202009D01*
G01X1890418Y-6201752D01*
G01X1890418Y-6191706D01*
G01X1890933Y-6181403D01*
G01X1892479Y-6181918D01*
G01X1894282Y-6183206D01*
G01X1895570Y-6184237D01*
G01X1897115Y-6185267D01*
G01X1901236Y-6187843D01*
G01X1903039Y-6188873D01*
G01X1905100Y-6189903D01*
G01X1907418Y-6190934D01*
G01X1912570Y-6192994D01*
G01X1914888Y-6193767D01*
G01X1917721Y-6194540D01*
G01X1920039Y-6195312D01*
G01X1924676Y-6196342D01*
G01X1928282Y-6196858D01*
G01X1935752Y-6197115D01*
G01X1943736Y-6196858D01*
G01X1946827Y-6196342D01*
G01X1949403Y-6195827D01*
G01X1951721Y-6195312D01*
G01X1954297Y-6194540D01*
G01X1956615Y-6193509D01*
G01X1959191Y-6192221D01*
G01X1960994Y-6190934D01*
G01X1962282Y-6189903D01*
G01X1964085Y-6188358D01*
G01X1965630Y-6186555D01*
G01X1966661Y-6185009D01*
G01X1967691Y-6182691D01*
G01X1968464Y-6180373D01*
G01X1968721Y-6177540D01*
G01X1968464Y-6173676D01*
G01X1967949Y-6171100D01*
G01X1967433Y-6169039D01*
G01X1966661Y-6166979D01*
G01X1965630Y-6165433D01*
G01X1964600Y-6164146D01*
G01X1963570Y-6163115D01*
G01X1960479Y-6161055D01*
G01X1958418Y-6160024D01*
G01X1955842Y-6158994D01*
G01X1953267Y-6158221D01*
G01X1949918Y-6157449D01*
G01X1947342Y-6156676D01*
G01X1944767Y-6156161D01*
G01X1932403Y-6154100D01*
G01X1929827Y-6153585D01*
G01X1926736Y-6153070D01*
G01X1922615Y-6152297D01*
G01X1920039Y-6151524D01*
G01X1917721Y-6151009D01*
G01X1915146Y-6150237D01*
G01X1913085Y-6149464D01*
G01X1911282Y-6148691D01*
G01X1907161Y-6146630D01*
G01X1905358Y-6145600D01*
G01X1903812Y-6144570D01*
G01X1899948Y-6141479D01*
G01X1898661Y-6140191D01*
G01X1897115Y-6138130D01*
G01X1895570Y-6135812D01*
G01X1894539Y-6134009D01*
G01X1893509Y-6131949D01*
G01X1892736Y-6129888D01*
G01X1891706Y-6125767D01*
G01X1891449Y-6120873D01*
G01X1891706Y-6114949D01*
G01X1892221Y-6111858D01*
G01X1892994Y-6109024D01*
G01X1894024Y-6106191D01*
G01X1895312Y-6103615D01*
G01X1896858Y-6101297D01*
G01X1898661Y-6098979D01*
G01X1900206Y-6096918D01*
G01X1902782Y-6094858D01*
G01X1904070Y-6093570D01*
G01X1905873Y-6092282D01*
G01X1907933Y-6090994D01*
G01X1909479Y-6089964D01*
G01X1911282Y-6088933D01*
G01X1913857Y-6087903D01*
G01X1916176Y-6086873D01*
G01X1921327Y-6085327D01*
G01X1924418Y-6084555D01*
G01X1927251Y-6084040D01*
G01X1933433Y-6083525D01*
G01X1937297Y-6083267D01*
G01X1941160Y-6083525D01*
G01X1944509Y-6083782D01*
G01X1948888Y-6084040D01*
G01X1953009Y-6084555D01*
G01X1956100Y-6085070D01*
G01X1963827Y-6086615D01*
G01X1966661Y-6087388D01*
G01X1971812Y-6088933D01*
G01X1976448Y-6090479D01*
G01X1979024Y-6091509D01*
G01X1980570Y-6092024D01*
G01X1980570Y-6100525D01*
G01X1980312Y-6110312D01*
G01X1979926Y-6111149D01*
G01X1979282Y-6111085D01*
G01X1977221Y-6109539D01*
G01X1974646Y-6107737D01*
G01X1972585Y-6106449D01*
G01X1968464Y-6104388D01*
G01X1966145Y-6103358D01*
G01X1963570Y-6102327D01*
G01X1960736Y-6101297D01*
G01X1957388Y-6100267D01*
G01X1955070Y-6099494D01*
G01X1949918Y-6098464D01*
G01X1945797Y-6097949D01*
G01X1938842Y-6097691D01*
G01X1931373Y-6097949D01*
G01X1928282Y-6098464D01*
G01X1925706Y-6098979D01*
G01X1923645Y-6099494D01*
G01X1921585Y-6100267D01*
G01X1917464Y-6102327D01*
G01X1915661Y-6103358D01*
G01X1914115Y-6104646D01*
G01X1911539Y-6107221D01*
G01X1910509Y-6108509D01*
G01X1909736Y-6110055D01*
G01X1908964Y-6112115D01*
G01X1908449Y-6116236D01*
G01X1908706Y-6121131D01*
G01X1909479Y-6124479D01*
G01X1910509Y-6126797D01*
G01X1911539Y-6128343D01*
G01X1912570Y-6129630D01*
G01X1914373Y-6131176D01*
G01X1916691Y-6132721D01*
G01X1918752Y-6133752D01*
G01X1921327Y-6134782D01*
G01X1923645Y-6135555D01*
G01X1927767Y-6136585D01*
G01X1933433Y-6137615D01*
G01X1936009Y-6138130D01*
G01X1942191Y-6139161D01*
G01X1952494Y-6141221D01*
G01X1956100Y-6141994D01*
G01X1958676Y-6142767D01*
G01X1960736Y-6143282D01*
G01X1963054Y-6144055D01*
G01X1965630Y-6145085D01*
G01X1967949Y-6146115D01*
G01X1970009Y-6147146D01*
G01X1972327Y-6148433D01*
G01X1974388Y-6149721D01*
G01X1979024Y-6153585D01*
G01X1980570Y-6155646D01*
G01X1982115Y-6157964D01*
G01X1983145Y-6160024D01*
G01X1984176Y-6162858D01*
G01X1984949Y-6165433D01*
G01X1985464Y-6169039D01*
G01X1985721Y-6172903D01*
G01X1985464Y-6176767D01*
G01X1985206Y-6178570D01*
G01X1984691Y-6181146D01*
G01X1983918Y-6183464D01*
G01X1983403Y-6185267D01*
G01X1982630Y-6187070D01*
G01X1981600Y-6189130D01*
G01X1980312Y-6191449D01*
G01X1979282Y-6193252D01*
G01X1978252Y-6194540D01*
G01X1975161Y-6198146D01*
G01X1973873Y-6199176D01*
G01X1972070Y-6200721D01*
G01X1969494Y-6202524D01*
G01X1967433Y-6203812D01*
G01X1963827Y-6205873D01*
G01X1961509Y-6206903D01*
G01X1958676Y-6207933D01*
G01X1955585Y-6208964D01*
G01X1953009Y-6209736D01*
G01X1947342Y-6210767D01*
G01X1941160Y-6211282D01*
G01X1935236Y-6211540D01*
G37*
G36*
G01X2047024Y-6211540D02*
G01X2039297Y-6211282D01*
G01X2036464Y-6210509D01*
G01X2033888Y-6209736D01*
G01X2031827Y-6209221D01*
G01X2029767Y-6208449D01*
G01X2025645Y-6206388D01*
G01X2023585Y-6205100D01*
G01X2019979Y-6202524D01*
G01X2018176Y-6200979D01*
G01X2016888Y-6199691D01*
G01X2014827Y-6197115D01*
G01X2013282Y-6195312D01*
G01X2011994Y-6193509D01*
G01X2010963Y-6191706D01*
G01X2008903Y-6187585D01*
G01X2007873Y-6185009D01*
G01X2006842Y-6181918D01*
G01X2006070Y-6179342D01*
G01X2005039Y-6173676D01*
G01X2004524Y-6168009D01*
G01X2004267Y-6163888D01*
G01X2004379Y-6162085D01*
G01X2020236Y-6162085D01*
G01X2020494Y-6164918D01*
G01X2020751Y-6167494D01*
G01X2021009Y-6171615D01*
G01X2021524Y-6174706D01*
G01X2021782Y-6176509D01*
G01X2022297Y-6178570D01*
G01X2023070Y-6180888D01*
G01X2023842Y-6182949D01*
G01X2025903Y-6187070D01*
G01X2026933Y-6188615D01*
G01X2028994Y-6191191D01*
G01X2030797Y-6192994D01*
G01X2032858Y-6194540D01*
G01X2034403Y-6195570D01*
G01X2036206Y-6196342D01*
G01X2038267Y-6197115D01*
G01X2040327Y-6197630D01*
G01X2040327Y-6197630D01*
G01X2041615Y-6197888D01*
G01X2046509Y-6198146D01*
G01X2051918Y-6197888D01*
G01X2054494Y-6197373D01*
G01X2057070Y-6196600D01*
G01X2059130Y-6195570D01*
G01X2061449Y-6194282D01*
G01X2063251Y-6192994D01*
G01X2065055Y-6191449D01*
G01X2067115Y-6189130D01*
G01X2068661Y-6186812D01*
G01X2069948Y-6184494D01*
G01X2070979Y-6182176D01*
G01X2071752Y-6180115D01*
G01X2072524Y-6177282D01*
G01X2073039Y-6174706D01*
G01X2073554Y-6170585D01*
G01X2073812Y-6163631D01*
G01X2073554Y-6156676D01*
G01X2073039Y-6152555D01*
G01X2072524Y-6149721D01*
G01X2071752Y-6146115D01*
G01X2070721Y-6143282D01*
G01X2069691Y-6140964D01*
G01X2068403Y-6138646D01*
G01X2065827Y-6135040D01*
G01X2064024Y-6133236D01*
G01X2062479Y-6131949D01*
G01X2060676Y-6130661D01*
G01X2058615Y-6129630D01*
G01X2056039Y-6128600D01*
G01X2053464Y-6127827D01*
G01X2048055Y-6127570D01*
G01X2042130Y-6127827D01*
G01X2039554Y-6128343D01*
G01X2036979Y-6129115D01*
G01X2034918Y-6130146D01*
G01X2033115Y-6130918D01*
G01X2031570Y-6131949D01*
G01X2028479Y-6134524D01*
G01X2026933Y-6136585D01*
G01X2025388Y-6138903D01*
G01X2024357Y-6140706D01*
G01X2023327Y-6143024D01*
G01X2022297Y-6146373D01*
G01X2021524Y-6148949D01*
G01X2021009Y-6152555D01*
G01X2020494Y-6159252D01*
G01X2020236Y-6162085D01*
G01X2004379Y-6162085D01*
G01X2004524Y-6159767D01*
G01X2004782Y-6157191D01*
G01X2005039Y-6154100D01*
G01X2005555Y-6151009D01*
G01X2006585Y-6145858D01*
G01X2007357Y-6143024D01*
G01X2008903Y-6138903D01*
G01X2009933Y-6136585D01*
G01X2010963Y-6134524D01*
G01X2012252Y-6132464D01*
G01X2013797Y-6130146D01*
G01X2015085Y-6128343D01*
G01X2017660Y-6125767D01*
G01X2018691Y-6124479D01*
G01X2019721Y-6123449D01*
G01X2022297Y-6121388D01*
G01X2023842Y-6120358D01*
G01X2025903Y-6119070D01*
G01X2028221Y-6117782D01*
G01X2030797Y-6116752D01*
G01X2033888Y-6115721D01*
G01X2036464Y-6114949D01*
G01X2040070Y-6114434D01*
G01X2046509Y-6114176D01*
G01X2052948Y-6114434D01*
G01X2054752Y-6114691D01*
G01X2057585Y-6115206D01*
G01X2060160Y-6115979D01*
G01X2062221Y-6116494D01*
G01X2064282Y-6117267D01*
G01X2068403Y-6119327D01*
G01X2070463Y-6120615D01*
G01X2074070Y-6123191D01*
G01X2075873Y-6124737D01*
G01X2078448Y-6127312D01*
G01X2080509Y-6129888D01*
G01X2081797Y-6131949D01*
G01X2083085Y-6133752D01*
G01X2084115Y-6135555D01*
G01X2085145Y-6137873D01*
G01X2086176Y-6140449D01*
G01X2087979Y-6145858D01*
G01X2089009Y-6151009D01*
G01X2089524Y-6155130D01*
G01X2089782Y-6162085D01*
G01X2089524Y-6169039D01*
G01X2089009Y-6173676D01*
G01X2088494Y-6176509D01*
G01X2087721Y-6180115D01*
G01X2086948Y-6182433D01*
G01X2086433Y-6184237D01*
G01X2085661Y-6186297D01*
G01X2084630Y-6188615D01*
G01X2083342Y-6191191D01*
G01X2082055Y-6193252D01*
G01X2081282Y-6194797D01*
G01X2080251Y-6196085D01*
G01X2077160Y-6199691D01*
G01X2075873Y-6200979D01*
G01X2073297Y-6203039D01*
G01X2071494Y-6204585D01*
G01X2069176Y-6206130D01*
G01X2066857Y-6207418D01*
G01X2064539Y-6208449D01*
G01X2061964Y-6209479D01*
G01X2059645Y-6210252D01*
G01X2054494Y-6211282D01*
G01X2047024Y-6211540D01*
G37*
G36*
G01X2161066Y-6193252D02*
G01X2160872Y-6144827D01*
G01X2160872Y-6080176D01*
G01X2176327Y-6080176D01*
G01X2176327Y-6208964D01*
G01X2169373Y-6208964D01*
G01X2161645Y-6209221D01*
G01X2161066Y-6193252D01*
G37*
G36*
G01X2113479Y-6100782D02*
G01X2113479Y-6084812D01*
G01X2130994Y-6084812D01*
G01X2130994Y-6100782D01*
G01X2113479Y-6100782D01*
G37*
G36*
G01X2114509Y-6208964D02*
G01X2114509Y-6116752D01*
G01X2129963Y-6116752D01*
G01X2129963Y-6208964D01*
G01X2114509Y-6208964D01*
G37*
G36*
G01X1935236Y-6418115D02*
G01X1929827Y-6417858D01*
G01X1927251Y-6417600D01*
G01X1924160Y-6417343D01*
G01X1922358Y-6417085D01*
G01X1920039Y-6416827D01*
G01X1916948Y-6416312D01*
G01X1914373Y-6415797D01*
G01X1912055Y-6415282D01*
G01X1908706Y-6414509D01*
G01X1905100Y-6413479D01*
G01X1901752Y-6412448D01*
G01X1896085Y-6410388D01*
G01X1893767Y-6409358D01*
G01X1891706Y-6408585D01*
G01X1890418Y-6408327D01*
G01X1890418Y-6398282D01*
G01X1890933Y-6387979D01*
G01X1892479Y-6388494D01*
G01X1894282Y-6389782D01*
G01X1895570Y-6390812D01*
G01X1897115Y-6391842D01*
G01X1901236Y-6394418D01*
G01X1903039Y-6395448D01*
G01X1905100Y-6396479D01*
G01X1907418Y-6397509D01*
G01X1912570Y-6399570D01*
G01X1914888Y-6400343D01*
G01X1917721Y-6401115D01*
G01X1920039Y-6401888D01*
G01X1924676Y-6402918D01*
G01X1928282Y-6403433D01*
G01X1935752Y-6403691D01*
G01X1943736Y-6403433D01*
G01X1946827Y-6402918D01*
G01X1949403Y-6402403D01*
G01X1951721Y-6401888D01*
G01X1954297Y-6401115D01*
G01X1956615Y-6400085D01*
G01X1959191Y-6398797D01*
G01X1960994Y-6397509D01*
G01X1962282Y-6396479D01*
G01X1964085Y-6394933D01*
G01X1965630Y-6393130D01*
G01X1966661Y-6391585D01*
G01X1967691Y-6389267D01*
G01X1968464Y-6386949D01*
G01X1968721Y-6384115D01*
G01X1968464Y-6380252D01*
G01X1967949Y-6377676D01*
G01X1967433Y-6375615D01*
G01X1966661Y-6373555D01*
G01X1965630Y-6372009D01*
G01X1964600Y-6370721D01*
G01X1963570Y-6369691D01*
G01X1960479Y-6367630D01*
G01X1958418Y-6366600D01*
G01X1955842Y-6365570D01*
G01X1953267Y-6364797D01*
G01X1949918Y-6364024D01*
G01X1947342Y-6363251D01*
G01X1944767Y-6362736D01*
G01X1932403Y-6360676D01*
G01X1929827Y-6360161D01*
G01X1926736Y-6359645D01*
G01X1922615Y-6358873D01*
G01X1920039Y-6358100D01*
G01X1917721Y-6357585D01*
G01X1915146Y-6356812D01*
G01X1913085Y-6356039D01*
G01X1911282Y-6355267D01*
G01X1907161Y-6353206D01*
G01X1905358Y-6352176D01*
G01X1903812Y-6351146D01*
G01X1899948Y-6348055D01*
G01X1898661Y-6346767D01*
G01X1897115Y-6344706D01*
G01X1895570Y-6342388D01*
G01X1894539Y-6340585D01*
G01X1893509Y-6338524D01*
G01X1892736Y-6336464D01*
G01X1891706Y-6332342D01*
G01X1891449Y-6327449D01*
G01X1891706Y-6321524D01*
G01X1892221Y-6318433D01*
G01X1892994Y-6315600D01*
G01X1894024Y-6312767D01*
G01X1895312Y-6310191D01*
G01X1896858Y-6307873D01*
G01X1898661Y-6305555D01*
G01X1900206Y-6303494D01*
G01X1902782Y-6301433D01*
G01X1904070Y-6300146D01*
G01X1905873Y-6298858D01*
G01X1907933Y-6297570D01*
G01X1909479Y-6296539D01*
G01X1911282Y-6295509D01*
G01X1913857Y-6294479D01*
G01X1916176Y-6293449D01*
G01X1921327Y-6291903D01*
G01X1924418Y-6291130D01*
G01X1927251Y-6290615D01*
G01X1933433Y-6290100D01*
G01X1937297Y-6289842D01*
G01X1941160Y-6290100D01*
G01X1944509Y-6290358D01*
G01X1948888Y-6290615D01*
G01X1953009Y-6291130D01*
G01X1956100Y-6291646D01*
G01X1963827Y-6293191D01*
G01X1966661Y-6293964D01*
G01X1971812Y-6295509D01*
G01X1976448Y-6297055D01*
G01X1979024Y-6298085D01*
G01X1980570Y-6298600D01*
G01X1980570Y-6307100D01*
G01X1980312Y-6316888D01*
G01X1979926Y-6317725D01*
G01X1979282Y-6317661D01*
G01X1977221Y-6316115D01*
G01X1974646Y-6314312D01*
G01X1972585Y-6313024D01*
G01X1968464Y-6310964D01*
G01X1966145Y-6309933D01*
G01X1963570Y-6308903D01*
G01X1960736Y-6307873D01*
G01X1957388Y-6306843D01*
G01X1955070Y-6306070D01*
G01X1949918Y-6305039D01*
G01X1945797Y-6304524D01*
G01X1938842Y-6304267D01*
G01X1931373Y-6304524D01*
G01X1928282Y-6305039D01*
G01X1925706Y-6305555D01*
G01X1923645Y-6306070D01*
G01X1921585Y-6306843D01*
G01X1917464Y-6308903D01*
G01X1915661Y-6309933D01*
G01X1914115Y-6311221D01*
G01X1911539Y-6313797D01*
G01X1910509Y-6315085D01*
G01X1909736Y-6316630D01*
G01X1908964Y-6318691D01*
G01X1908449Y-6322812D01*
G01X1908706Y-6327706D01*
G01X1909479Y-6331055D01*
G01X1910509Y-6333373D01*
G01X1911539Y-6334918D01*
G01X1912570Y-6336206D01*
G01X1914373Y-6337752D01*
G01X1916691Y-6339297D01*
G01X1918752Y-6340327D01*
G01X1921327Y-6341358D01*
G01X1923645Y-6342130D01*
G01X1927767Y-6343161D01*
G01X1933433Y-6344191D01*
G01X1936009Y-6344706D01*
G01X1942191Y-6345736D01*
G01X1952494Y-6347797D01*
G01X1956100Y-6348570D01*
G01X1958676Y-6349342D01*
G01X1960736Y-6349858D01*
G01X1963054Y-6350630D01*
G01X1965630Y-6351661D01*
G01X1967949Y-6352691D01*
G01X1970009Y-6353721D01*
G01X1972327Y-6355009D01*
G01X1974388Y-6356297D01*
G01X1979024Y-6360161D01*
G01X1980570Y-6362221D01*
G01X1982115Y-6364539D01*
G01X1983145Y-6366600D01*
G01X1984176Y-6369433D01*
G01X1984949Y-6372009D01*
G01X1985464Y-6375615D01*
G01X1985721Y-6379479D01*
G01X1985464Y-6383342D01*
G01X1985206Y-6385145D01*
G01X1984691Y-6387721D01*
G01X1983918Y-6390040D01*
G01X1983403Y-6391842D01*
G01X1982630Y-6393646D01*
G01X1981600Y-6395706D01*
G01X1980312Y-6398024D01*
G01X1979282Y-6399827D01*
G01X1978252Y-6401115D01*
G01X1975161Y-6404721D01*
G01X1973873Y-6405751D01*
G01X1972070Y-6407297D01*
G01X1969494Y-6409100D01*
G01X1967433Y-6410388D01*
G01X1963827Y-6412448D01*
G01X1961509Y-6413479D01*
G01X1958676Y-6414509D01*
G01X1955585Y-6415539D01*
G01X1953009Y-6416312D01*
G01X1947342Y-6417343D01*
G01X1941160Y-6417858D01*
G01X1935236Y-6418115D01*
G37*
G36*
G01X2053206Y-6418115D02*
G01X2051403Y-6417858D01*
G01X2049342Y-6417600D01*
G01X2045221Y-6417343D01*
G01X2041615Y-6416827D01*
G01X2039039Y-6416312D01*
G01X2034918Y-6415282D01*
G01X2032342Y-6414509D01*
G01X2029767Y-6413479D01*
G01X2025645Y-6411418D01*
G01X2023070Y-6409873D01*
G01X2021009Y-6408585D01*
G01X2019721Y-6407555D01*
G01X2014054Y-6401888D01*
G01X2012509Y-6399827D01*
G01X2011479Y-6398282D01*
G01X2009418Y-6394676D01*
G01X2007873Y-6391070D01*
G01X2007100Y-6388752D01*
G01X2006327Y-6386176D01*
G01X2005555Y-6383085D01*
G01X2005039Y-6380252D01*
G01X2004524Y-6374585D01*
G01X2004267Y-6370979D01*
G01X2004524Y-6367373D01*
G01X2004782Y-6364797D01*
G01X2005039Y-6361706D01*
G01X2005555Y-6358615D01*
G01X2005709Y-6357843D01*
G01X2020236Y-6357843D01*
G01X2020494Y-6359130D01*
G01X2046767Y-6359388D01*
G01X2066342Y-6359195D01*
G01X2073039Y-6358615D01*
G01X2073039Y-6355524D01*
G01X2072524Y-6352433D01*
G01X2072267Y-6350630D01*
G01X2071752Y-6348570D01*
G01X2070979Y-6346509D01*
G01X2069948Y-6344191D01*
G01X2068403Y-6341873D01*
G01X2067115Y-6340070D01*
G01X2065312Y-6338267D01*
G01X2062994Y-6336721D01*
G01X2061191Y-6335691D01*
G01X2058615Y-6334661D01*
G01X2056039Y-6333888D01*
G01X2053721Y-6333630D01*
G01X2050373Y-6333373D01*
G01X2047797Y-6333373D01*
G01X2045994Y-6333630D01*
G01X2042645Y-6333888D01*
G01X2038782Y-6334661D01*
G01X2035948Y-6335691D01*
G01X2033373Y-6336979D01*
G01X2031570Y-6338267D01*
G01X2030024Y-6339297D01*
G01X2027964Y-6341100D01*
G01X2025903Y-6343676D01*
G01X2023327Y-6347540D01*
G01X2022555Y-6349342D01*
G01X2021782Y-6351403D01*
G01X2021009Y-6353721D01*
G01X2020494Y-6356039D01*
G01X2020236Y-6357843D01*
G01X2020236Y-6357843D01*
G01X2005709Y-6357843D01*
G01X2006070Y-6356039D01*
G01X2006585Y-6353721D01*
G01X2007357Y-6350630D01*
G01X2008388Y-6348055D01*
G01X2009161Y-6345994D01*
G01X2009933Y-6344191D01*
G01X2010963Y-6342388D01*
G01X2012252Y-6340070D01*
G01X2013539Y-6338267D01*
G01X2014570Y-6336721D01*
G01X2015858Y-6335176D01*
G01X2021009Y-6330024D01*
G01X2022297Y-6328994D01*
G01X2024100Y-6327706D01*
G01X2026161Y-6326418D01*
G01X2027964Y-6325388D01*
G01X2030024Y-6324358D01*
G01X2032600Y-6323327D01*
G01X2035948Y-6322297D01*
G01X2038524Y-6321524D01*
G01X2042130Y-6321009D01*
G01X2048055Y-6320752D01*
G01X2055524Y-6321009D01*
G01X2058615Y-6321524D01*
G01X2060418Y-6321782D01*
G01X2062479Y-6322297D01*
G01X2064797Y-6323070D01*
G01X2066857Y-6323843D01*
G01X2071494Y-6326161D01*
G01X2075100Y-6328736D01*
G01X2076903Y-6330282D01*
G01X2079479Y-6332858D01*
G01X2080509Y-6334146D01*
G01X2082570Y-6337237D01*
G01X2083600Y-6339039D01*
G01X2084630Y-6341358D01*
G01X2085661Y-6343933D01*
G01X2086433Y-6346251D01*
G01X2087463Y-6350373D01*
G01X2087979Y-6353979D01*
G01X2088236Y-6362994D01*
G01X2088236Y-6371236D01*
G01X2020236Y-6371236D01*
G01X2020236Y-6372524D01*
G01X2020494Y-6376130D01*
G01X2021009Y-6379221D01*
G01X2021524Y-6381797D01*
G01X2022297Y-6384630D01*
G01X2023070Y-6386691D01*
G01X2023842Y-6388494D01*
G01X2024873Y-6390297D01*
G01X2025903Y-6391842D01*
G01X2027191Y-6393646D01*
G01X2028736Y-6395448D01*
G01X2030024Y-6396737D01*
G01X2031827Y-6398282D01*
G01X2034145Y-6399827D01*
G01X2036464Y-6401115D01*
G01X2039039Y-6402145D01*
G01X2041100Y-6402918D01*
G01X2045736Y-6403949D01*
G01X2052176Y-6404206D01*
G01X2058615Y-6403949D01*
G01X2062221Y-6403433D01*
G01X2064539Y-6402918D01*
G01X2067630Y-6402145D01*
G01X2070721Y-6401115D01*
G01X2073297Y-6400085D01*
G01X2075615Y-6399055D01*
G01X2078191Y-6398024D01*
G01X2080251Y-6396994D01*
G01X2082312Y-6395706D01*
G01X2084115Y-6394418D01*
G01X2085661Y-6393646D01*
G01X2086691Y-6393388D01*
G01X2086691Y-6401630D01*
G01X2086433Y-6407941D01*
G01X2085661Y-6410388D01*
G01X2080509Y-6412448D01*
G01X2077676Y-6413479D01*
G01X2070979Y-6415539D01*
G01X2068403Y-6416312D01*
G01X2062736Y-6417343D01*
G01X2055524Y-6417858D01*
G01X2053206Y-6418115D01*
G37*
G36*
G01X2112448Y-6415539D02*
G01X2112448Y-6323327D01*
G01X2127903Y-6323327D01*
G01X2127903Y-6327964D01*
G01X2128096Y-6331376D01*
G01X2128676Y-6332342D01*
G01X2130221Y-6331570D01*
G01X2132282Y-6330024D01*
G01X2134600Y-6328479D01*
G01X2136660Y-6327191D01*
G01X2138979Y-6325903D01*
G01X2143100Y-6323843D01*
G01X2145676Y-6322812D01*
G01X2147736Y-6322039D01*
G01X2152373Y-6321009D01*
G01X2158297Y-6320752D01*
G01X2164221Y-6321009D01*
G01X2166797Y-6321524D01*
G01X2170145Y-6322297D01*
G01X2172979Y-6323327D01*
G01X2175554Y-6324615D01*
G01X2178130Y-6326418D01*
G01X2180191Y-6327964D01*
G01X2181479Y-6329252D01*
G01X2182509Y-6330540D01*
G01X2183797Y-6332342D01*
G01X2185085Y-6334403D01*
G01X2186115Y-6336464D01*
G01X2187145Y-6339039D01*
G01X2187918Y-6341100D01*
G01X2188948Y-6345736D01*
G01X2189463Y-6349858D01*
G01X2189721Y-6383085D01*
G01X2189721Y-6415539D01*
G01X2174266Y-6415539D01*
G01X2174266Y-6387979D01*
G01X2174009Y-6359645D01*
G01X2173494Y-6352948D01*
G01X2173236Y-6350888D01*
G01X2172721Y-6347797D01*
G01X2171691Y-6344706D01*
G01X2170660Y-6342645D01*
G01X2169630Y-6340843D01*
G01X2168342Y-6339297D01*
G01X2166539Y-6338009D01*
G01X2163963Y-6336721D01*
G01X2161645Y-6335948D01*
G01X2158039Y-6335433D01*
G01X2155464Y-6335176D01*
G01X2152888Y-6335433D01*
G01X2150827Y-6335691D01*
G01X2147736Y-6336206D01*
G01X2145161Y-6336979D01*
G01X2143357Y-6337494D01*
G01X2141555Y-6338267D01*
G01X2137433Y-6340327D01*
G01X2133827Y-6342388D01*
G01X2131767Y-6343676D01*
G01X2129963Y-6344964D01*
G01X2128676Y-6345736D01*
G01X2128096Y-6354623D01*
G01X2127903Y-6380767D01*
G01X2127903Y-6415539D01*
G01X2112448Y-6415539D01*
G37*
G36*
G01X2246388Y-6418115D02*
G01X2240463Y-6417858D01*
G01X2234282Y-6416827D01*
G01X2231706Y-6416312D01*
G01X2229645Y-6415797D01*
G01X2227327Y-6415282D01*
G01X2224751Y-6414509D01*
G01X2222433Y-6413736D01*
G01X2216251Y-6411418D01*
G01X2214448Y-6410646D01*
G01X2213676Y-6408327D01*
G01X2213418Y-6401888D01*
G01X2213933Y-6393130D01*
G01X2215736Y-6393903D01*
G01X2218054Y-6395448D01*
G01X2220115Y-6396737D01*
G01X2222433Y-6398024D01*
G01X2226554Y-6400085D01*
G01X2229130Y-6401115D01*
G01X2231964Y-6402145D01*
G01X2235312Y-6403176D01*
G01X2237888Y-6403949D01*
G01X2241494Y-6404464D01*
G01X2247418Y-6404721D01*
G01X2253857Y-6404464D01*
G01X2256948Y-6403949D01*
G01X2260297Y-6403176D01*
G01X2262873Y-6402145D01*
G01X2264933Y-6401115D01*
G01X2266479Y-6399827D01*
G01X2267766Y-6398539D01*
G01X2269054Y-6396737D01*
G01X2269827Y-6394676D01*
G01X2270085Y-6391585D01*
G01X2269570Y-6387464D01*
G01X2268282Y-6384373D01*
G01X2266736Y-6382570D01*
G01X2264933Y-6381282D01*
G01X2262357Y-6379994D01*
G01X2259009Y-6378964D01*
G01X2256433Y-6378191D01*
G01X2251797Y-6377161D01*
G01X2241494Y-6375100D01*
G01X2239176Y-6374585D01*
G01X2236085Y-6373812D01*
G01X2232994Y-6372782D01*
G01X2230160Y-6371752D01*
G01X2227585Y-6370721D01*
G01X2225267Y-6369433D01*
G01X2222948Y-6367888D01*
G01X2221145Y-6366342D01*
G01X2218570Y-6363767D01*
G01X2217539Y-6362479D01*
G01X2216509Y-6360676D01*
G01X2215479Y-6358358D01*
G01X2214706Y-6355524D01*
G01X2214191Y-6352948D01*
G01X2213933Y-6350888D01*
G01X2214191Y-6347282D01*
G01X2214706Y-6344191D01*
G01X2215221Y-6342130D01*
G01X2215994Y-6339812D01*
G01X2217024Y-6337494D01*
G01X2218570Y-6334918D01*
G01X2220115Y-6332858D01*
G01X2223979Y-6328994D01*
G01X2225782Y-6327706D01*
G01X2227842Y-6326418D01*
G01X2229645Y-6325388D01*
G01X2231964Y-6324358D01*
G01X2234797Y-6323327D01*
G01X2236857Y-6322555D01*
G01X2242009Y-6321524D01*
G01X2246645Y-6321009D01*
G01X2249479Y-6320752D01*
G01X2252312Y-6321009D01*
G01X2255403Y-6321267D01*
G01X2259524Y-6321524D01*
G01X2262100Y-6322039D01*
G01X2265191Y-6322555D01*
G01X2269312Y-6323327D01*
G01X2272918Y-6324358D01*
G01X2276009Y-6325388D01*
G01X2282448Y-6327964D01*
G01X2282448Y-6335433D01*
G01X2282191Y-6343676D01*
G01X2281740Y-6344127D01*
G01X2280903Y-6343933D01*
G01X2276782Y-6341358D01*
G01X2274979Y-6340327D01*
G01X2272918Y-6339297D01*
G01X2267766Y-6337237D01*
G01X2264676Y-6336206D01*
G01X2262100Y-6335433D01*
G01X2256948Y-6334403D01*
G01X2251797Y-6334146D01*
G01X2245100Y-6334403D01*
G01X2240979Y-6335176D01*
G01X2237888Y-6336206D01*
G01X2235827Y-6337237D01*
G01X2234282Y-6338267D01*
G01X2232994Y-6339297D01*
G01X2231964Y-6340327D01*
G01X2231191Y-6341615D01*
G01X2230418Y-6343418D01*
G01X2229903Y-6346251D01*
G01X2230160Y-6349342D01*
G01X2230675Y-6351403D01*
G01X2231448Y-6353464D01*
G01X2233251Y-6355782D01*
G01X2235570Y-6357327D01*
G01X2237630Y-6358358D01*
G01X2240206Y-6359388D01*
G01X2242524Y-6360161D01*
G01X2245100Y-6360676D01*
G01X2252312Y-6362221D01*
G01X2254888Y-6362736D01*
G01X2257721Y-6363251D01*
G01X2261585Y-6364024D01*
G01X2264160Y-6364797D01*
G01X2266479Y-6365312D01*
G01X2268797Y-6366085D01*
G01X2271115Y-6367115D01*
G01X2273948Y-6368403D01*
G01X2276266Y-6369948D01*
G01X2278070Y-6371236D01*
G01X2280645Y-6373812D01*
G01X2282191Y-6375615D01*
G01X2283479Y-6377676D01*
G01X2284251Y-6379736D01*
G01X2285024Y-6382055D01*
G01X2285539Y-6384373D01*
G01X2286054Y-6388494D01*
G01X2285797Y-6391070D01*
G01X2285282Y-6394161D01*
G01X2284509Y-6397252D01*
G01X2283479Y-6399827D01*
G01X2282191Y-6402145D01*
G01X2280645Y-6404464D01*
G01X2279100Y-6406267D01*
G01X2276009Y-6409358D01*
G01X2273433Y-6411161D01*
G01X2271373Y-6412448D01*
G01X2268282Y-6413994D01*
G01X2265963Y-6415024D01*
G01X2262615Y-6416054D01*
G01X2260039Y-6416827D01*
G01X2256433Y-6417343D01*
G01X2251797Y-6417858D01*
G01X2246388Y-6418115D01*
G37*
G36*
G01X2344266Y-6418115D02*
G01X2335509Y-6417600D01*
G01X2331645Y-6416570D01*
G01X2328554Y-6415539D01*
G01X2325979Y-6414509D01*
G01X2323918Y-6413479D01*
G01X2322115Y-6412448D01*
G01X2320569Y-6411418D01*
G01X2319282Y-6410646D01*
G01X2316706Y-6408585D01*
G01X2315418Y-6407297D01*
G01X2314130Y-6405751D01*
G01X2312327Y-6403949D01*
G01X2310782Y-6401888D01*
G01X2309494Y-6400085D01*
G01X2308206Y-6398024D01*
G01X2307175Y-6396221D01*
G01X2306403Y-6394418D01*
G01X2305630Y-6392358D01*
G01X2304085Y-6387721D01*
G01X2303312Y-6384888D01*
G01X2302797Y-6382312D01*
G01X2302282Y-6378706D01*
G01X2302024Y-6370979D01*
G01X2302115Y-6367888D01*
G01X2317994Y-6367888D01*
G01X2318251Y-6376645D01*
G01X2318767Y-6380252D01*
G01X2319282Y-6382827D01*
G01X2319797Y-6385145D01*
G01X2320569Y-6387721D01*
G01X2321600Y-6390297D01*
G01X2323403Y-6393903D01*
G01X2324433Y-6395448D01*
G01X2325721Y-6396994D01*
G01X2327524Y-6399055D01*
G01X2329585Y-6400600D01*
G01X2331388Y-6401888D01*
G01X2333448Y-6402918D01*
G01X2335509Y-6403691D01*
G01X2337569Y-6404206D01*
G01X2337569Y-6404206D01*
G01X2338857Y-6404464D01*
G01X2343494Y-6404721D01*
G01X2349676Y-6404464D01*
G01X2353024Y-6403691D01*
G01X2355857Y-6402661D01*
G01X2358176Y-6401373D01*
G01X2359979Y-6400343D01*
G01X2361267Y-6399312D01*
G01X2363842Y-6396737D01*
G01X2365130Y-6394933D01*
G01X2366418Y-6392873D01*
G01X2367448Y-6391070D01*
G01X2368479Y-6388752D01*
G01X2369509Y-6385403D01*
G01X2370282Y-6382827D01*
G01X2370797Y-6379221D01*
G01X2371054Y-6370721D01*
G01X2370797Y-6361706D01*
G01X2370282Y-6358100D01*
G01X2369509Y-6353979D01*
G01X2368479Y-6350630D01*
G01X2367448Y-6348312D01*
G01X2366418Y-6346251D01*
G01X2365388Y-6344449D01*
G01X2364615Y-6343161D01*
G01X2363585Y-6341873D01*
G01X2361009Y-6339297D01*
G01X2359206Y-6338009D01*
G01X2357145Y-6336721D01*
G01X2355085Y-6335691D01*
G01X2352766Y-6334918D01*
G01X2350706Y-6334403D01*
G01X2345554Y-6334146D01*
G01X2339373Y-6334403D01*
G01X2336024Y-6335176D01*
G01X2333191Y-6336206D01*
G01X2331130Y-6337237D01*
G01X2329070Y-6338524D01*
G01X2327266Y-6340070D01*
G01X2324691Y-6342645D01*
G01X2323660Y-6343933D01*
G01X2322630Y-6345736D01*
G01X2321600Y-6347797D01*
G01X2320827Y-6349600D01*
G01X2320054Y-6351661D01*
G01X2319282Y-6354236D01*
G01X2318767Y-6356554D01*
G01X2318251Y-6360161D01*
G01X2317994Y-6367888D01*
G01X2302115Y-6367888D01*
G01X2302282Y-6362221D01*
G01X2302797Y-6358615D01*
G01X2303312Y-6355524D01*
G01X2303827Y-6353464D01*
G01X2304342Y-6351146D01*
G01X2305115Y-6348570D01*
G01X2305888Y-6346509D01*
G01X2306660Y-6344706D01*
G01X2308979Y-6340070D01*
G01X2310524Y-6337752D01*
G01X2311812Y-6335948D01*
G01X2313872Y-6333373D01*
G01X2317736Y-6329509D01*
G01X2319797Y-6327964D01*
G01X2322373Y-6326161D01*
G01X2327009Y-6323843D01*
G01X2329070Y-6323070D01*
G01X2331388Y-6322297D01*
G01X2334478Y-6321524D01*
G01X2337312Y-6321009D01*
G01X2342979Y-6320752D01*
G01X2350191Y-6321009D01*
G01X2353282Y-6321524D01*
G01X2355600Y-6322039D01*
G01X2358691Y-6322812D01*
G01X2361524Y-6323843D01*
G01X2365645Y-6325903D01*
G01X2367964Y-6327191D01*
G01X2369766Y-6328479D01*
G01X2372342Y-6330540D01*
G01X2376206Y-6334403D01*
G01X2378267Y-6336979D01*
G01X2379297Y-6338524D01*
G01X2381357Y-6342130D01*
G01X2382388Y-6344191D01*
G01X2383418Y-6346509D01*
G01X2384963Y-6351146D01*
G01X2385736Y-6353979D01*
G01X2386251Y-6356554D01*
G01X2386766Y-6360161D01*
G01X2387281Y-6367888D01*
G01X2387281Y-6369433D01*
G01X2386766Y-6377676D01*
G01X2386251Y-6381282D01*
G01X2385736Y-6383858D01*
G01X2384963Y-6387206D01*
G01X2383418Y-6391842D01*
G01X2382388Y-6394161D01*
G01X2380069Y-6398797D01*
G01X2378782Y-6400858D01*
G01X2375691Y-6404979D01*
G01X2371312Y-6409358D01*
G01X2369251Y-6410903D01*
G01X2367964Y-6411933D01*
G01X2366160Y-6412964D01*
G01X2362039Y-6415024D01*
G01X2359206Y-6416054D01*
G01X2356888Y-6416827D01*
G01X2351736Y-6417858D01*
G01X2344266Y-6418115D01*
G37*
G36*
G01X2411751Y-6415539D02*
G01X2411751Y-6323327D01*
G01X2427206Y-6323327D01*
G01X2427206Y-6328994D01*
G01X2427463Y-6335433D01*
G01X2427850Y-6335884D01*
G01X2428494Y-6335691D01*
G01X2430039Y-6334661D01*
G01X2431327Y-6333630D01*
G01X2433130Y-6332342D01*
G01X2435448Y-6330797D01*
G01X2437509Y-6329509D01*
G01X2439054Y-6328479D01*
G01X2440857Y-6327449D01*
G01X2442918Y-6326418D01*
G01X2444979Y-6325645D01*
G01X2447297Y-6324873D01*
G01X2449872Y-6324100D01*
G01X2452191Y-6323585D01*
G01X2457600Y-6323327D01*
G01X2464554Y-6323585D01*
G01X2468160Y-6324100D01*
G01X2469448Y-6324358D01*
G01X2469448Y-6331312D01*
G01X2469191Y-6339039D01*
G01X2468418Y-6339555D01*
G01X2466615Y-6339555D01*
G01X2463524Y-6339039D01*
G01X2460948Y-6338782D01*
G01X2456827Y-6338524D01*
G01X2453736Y-6338524D01*
G01X2448585Y-6339039D01*
G01X2446266Y-6339555D01*
G01X2443175Y-6340327D01*
G01X2440857Y-6341358D01*
G01X2436221Y-6343676D01*
G01X2432100Y-6346251D01*
G01X2428494Y-6348827D01*
G01X2427206Y-6349600D01*
G01X2427206Y-6415539D01*
G01X2411751Y-6415539D01*
G37*
G04 Text End*

G04 PolygonModel Start*
G54D13*
G01X2379990Y-1900006D02*
G01X2619998Y-1900006D01*
G01X2449995Y-12D02*
G01X249926Y-12D01*
G01X2620000Y-5830074D02*
G01X2620000Y-170012D01*
G01X80000Y-170012D02*
G01X80000Y-5830074D01*
G01X1779997Y-12D02*
G01X1779997Y-200012D01*
G01X879998Y-200012D02*
G01X879998Y-12D01*
G01X2620000Y-1105047D02*
G01X2379990Y-1105047D01*
G01X249926Y-6000000D02*
G01X2449995Y-6000000D01*
G54D14*
G01X734596Y-5950000D02*
G01X734721Y-5594326D01*
G01X912396Y-5950000D02*
G01X912521Y-5594326D01*
G01X2029996Y-5950000D02*
G01X2004596Y-5950000D01*
G01X1826796Y-5950000D01*
G01X1826796Y-5721400D01*
G01X1598196Y-5721400D01*
G01X1598196Y-5950000D01*
G01X1369596Y-5950000D01*
G01X1369596Y-5721400D01*
G01X1140996Y-5721400D01*
G01X1140996Y-5950000D01*
G01X734596Y-5950000D01*
G01X2029996Y-5950000D02*
G01X2029996Y-5619800D01*
G54D13*
G01X80000Y-5830000D02*
G03X250000Y-6000000I170000J0D01*
G01X2449995Y-6000000D02*
G03X2619995Y-5830000I0J170000D01*
G01X2619995Y-170012D02*
G03X2449995Y-12I-170000J0D01*
G01X250000Y-12D02*
G03X80000Y-170012I0J-170000D01*
G01X1800000Y-6229200D02*
G01X1850000Y-6229200D01*
G01X1800000Y-6169198D02*
G01X1850000Y-6169198D01*
G01X1660003Y-6109200D02*
G01X1660003Y-6059200D01*
G01X1539998Y-6109200D02*
G01X1539998Y-6059200D01*
G01X1160001Y-6109200D02*
G01X1160001Y-6059200D01*
G01X1040004Y-6109200D02*
G01X1040004Y-6059200D01*
G01X850000Y-6229845D02*
G01X920005Y-6229845D01*
G01X850000Y-6168695D02*
G01X920005Y-6168695D01*
G01X850000Y-6639197D02*
G01X850000Y-6059200D01*
G01X850000Y-6059200D02*
G01X1850000Y-6059200D01*
G01X1850000Y-6059200D02*
G01X1850000Y-6639197D01*
G01X1850000Y-6639197D02*
G01X850000Y-6639197D01*

G04 Rect Start*
G01X919992Y-6589217D02*
G01X919992Y-6109208D01*
G01X1800000Y-6109208D01*
G01X1800000Y-6589217D01*
G01X919992Y-6589217D01*
G04 Rect End*

M02*

