G04 Layer: BottomLayer*
G04 EasyEDA Pro v2.2.47.7, 2026-05-15 13:10:38*
G04 Gerber Generator version 0.3*
G04 Scale: 100 percent, Rotated: No, Reflected: No*
G04 Dimensions in millimeters*
G04 Leading zeros omitted, absolute positions, 4 integers and 5 decimals*
G04 Generated by one-click*
G04 Object Configs: Pad,Via,Track,Text,Image,Dimension,BoardOutline,BoardCutout,CopperFilled,SolidRegion,FPCStiffener,Line,PlaneZone,ComponentProperty,ComponentSilkscreen,TearDrop*
G04 Layer Configs: 1,2,3,4,5,6,7,8,9,10,11,13,14,56*
G04 Copper Areas: 0*
%FSLAX45Y45*%
%MOMM*%
%ADD10R,1.524X1.524*%
%ADD11C,1.524*%
%ADD12O,2.0X3.99999*%
%ADD13O,1.75301X2.4*%
%ADD14R,1.75301X2.4*%
%ADD15C,1.65001*%
%ADD16O,2.4X1.75301*%
%ADD17R,2.4X1.75301*%
%ADD18C,0.2509*%
%ADD19C,0.254*%
G75*


G04 Pad Start*
G54D10*
G01X2493000Y-2190000D03*
G54D11*
G01X2493000Y-2444000D03*
G01X2493000Y-2698000D03*
G01X2493000Y-2952000D03*
G01X2493000Y-3206000D03*
G01X2493000Y-3460000D03*
G01X2493000Y-3714000D03*
G01X2493000Y-5492000D03*
G01X2493000Y-5238000D03*
G01X2493000Y-4984000D03*
G01X2493000Y-4730000D03*
G01X2493000Y-4476000D03*
G01X2493000Y-4222000D03*
G01X2493000Y-3968000D03*
G01X207000Y-3968000D03*
G01X207000Y-4222000D03*
G01X207000Y-4476000D03*
G01X207000Y-4730000D03*
G01X207000Y-4984000D03*
G01X207000Y-5238000D03*
G54D10*
G01X207000Y-5492000D03*
G54D11*
G01X207000Y-3714000D03*
G01X207000Y-3460000D03*
G01X207000Y-3206000D03*
G01X207000Y-2952000D03*
G01X207000Y-2698000D03*
G01X207000Y-2444000D03*
G01X207000Y-2190000D03*
G01X207000Y-1174000D03*
G01X207000Y-1428000D03*
G01X207000Y-1682000D03*
G01X207000Y-1936000D03*
G54D12*
G01X2129399Y-5270500D03*
G01X1875399Y-5270500D03*
G01X1621399Y-5270500D03*
G01X1621399Y-266700D03*
G01X1875399Y-266700D03*
G01X2129399Y-266700D03*
G54D13*
G01X825500Y-406400D03*
G01X1079500Y-406400D03*
G54D14*
G01X1333500Y-406400D03*
G54D13*
G01X571500Y-406400D03*
G01X317500Y-406400D03*
G54D15*
G01X1600001Y-6299200D03*
G01X1349988Y-6299200D03*
G01X1100002Y-6299200D03*
G54D16*
G01X1193800Y-2451100D03*
G01X1193800Y-2197100D03*
G01X1193800Y-1943100D03*
G01X1193800Y-1689100D03*
G01X1193800Y-1435100D03*
G54D17*
G01X1193800Y-1181100D03*
G04 Pad End*

G04 Track Start*
G54D19*
G01X1100002Y-6299200D02*
G01X1100002Y-5791897D01*
G01X1621399Y-5270500D01*
G01X2070100Y-5562600D02*
G01X2133600Y-5499100D01*
G01X2133600Y-5274701D01*
G01X2129399Y-5270500D01*
G01X2493000Y-4222000D02*
G01X2298700Y-4416300D01*
G01X2298700Y-5549900D01*
G01X2197100Y-5651500D01*
G01X1714500Y-5651500D01*
G01X1600001Y-5765999D01*
G01X1600001Y-6299200D01*
G01X1349989Y-6299200D02*
G01X1349989Y-5774711D01*
G01X1562100Y-5562600D01*
G01X2070100Y-5562600D01*
G01X1875399Y-5037699D02*
G01X1875399Y-5270500D01*
G01X1810839Y-4973139D02*
G01X1875399Y-5037699D01*
G01X927100Y-5702300D02*
G01X1371600Y-5257800D01*
G01X1790700Y-6375400D02*
G01X1683839Y-6482261D01*
G01X1790700Y-5816600D02*
G01X1790700Y-6375400D01*
G01X1866900Y-5740400D02*
G01X1790700Y-5816600D01*
G01X2273300Y-5740400D02*
G01X1866900Y-5740400D01*
G01X2388900Y-5624800D02*
G01X2273300Y-5740400D01*
G01X2388900Y-4686880D02*
G01X2388900Y-5624800D01*
G01X2493000Y-4582780D02*
G01X2388900Y-4686880D01*
G01X2493000Y-4476000D02*
G01X2493000Y-4582780D01*
G01X1683839Y-6482261D02*
G01X1021261Y-6482261D01*
G01X927100Y-6388100D01*
G01X927100Y-5702300D01*
G01X1371600Y-5257800D02*
G01X1371600Y-5041900D01*
G01X1440361Y-4973139D01*
G01X1810839Y-4973139D01*
G01X1193800Y-1181100D02*
G01X1333500Y-1041400D01*
G01X1333500Y-406400D01*
G01X1193800Y-1689100D02*
G01X1130300Y-1689100D01*
G01X711200Y-2108200D01*
G01X711200Y-2701800D01*
G01X207000Y-3206000D01*
G01X1193800Y-1181100D02*
G01X812800Y-1562100D01*
G01X341100Y-1562100D01*
G01X207000Y-1428000D01*
G01X1193800Y-1435100D02*
G01X1155700Y-1435100D01*
G01X654800Y-1936000D01*
G01X207000Y-1936000D01*
G01X876300Y-2790700D02*
G01X207000Y-3460000D01*
G01X1193800Y-1943100D02*
G01X1104900Y-1943100D01*
G01X876300Y-2171700D01*
G01X876300Y-2790700D01*
G01X1193800Y-1181100D02*
G01X1409700Y-1397000D01*
G01X1226639Y-2164261D02*
G01X1193800Y-2197100D01*
G01X1409700Y-1397000D02*
G01X1409700Y-2044700D01*
G01X1290139Y-2164261D01*
G01X1226639Y-2164261D01*
G01X2129399Y-5270500D02*
G01X2129399Y-3132699D01*
G01X1193800Y-2197100D01*
G04 Track End*

M02*

